<svg width="81" height="80" viewBox="0 0 81 80" fill="none" xmlns="http://www.w3.org/2000/svg">
<rect x="0.0557861" width="80" height="80" rx="40" fill="#F4F5F7"/>
<path d="M33.0558 29H30.0558C29.7906 29 29.5362 29.1054 29.3487 29.2929C29.1611 29.4804 29.0558 29.7348 29.0558 30V50C29.0558 50.2652 29.1611 50.5196 29.3487 50.7071C29.5362 50.8946 29.7906 51 30.0558 51H33.0558V29Z" fill="#D6B1FF"/>
<path d="M35.0558 51H45.0558V29H35.0558V51ZM40.0558 47C39.7906 47 39.5362 46.8946 39.3487 46.7071C39.1611 46.5196 39.0558 46.2652 39.0558 46C39.0558 45.7348 39.1611 45.4804 39.3487 45.2929C39.5362 45.1054 39.7906 45 40.0558 45C40.321 45 40.5754 45.1054 40.7629 45.2929C40.9504 45.4804 41.0558 45.7348 41.0558 46C41.0558 46.2652 40.9504 46.5196 40.7629 46.7071C40.5754 46.8946 40.321 47 40.0558 47ZM40.0558 33C40.321 33 40.5754 33.1054 40.7629 33.2929C40.9504 33.4804 41.0558 33.7348 41.0558 34C41.0558 34.2652 40.9504 34.5196 40.7629 34.7071C40.5754 34.8946 40.321 35 40.0558 35C39.7906 35 39.5362 34.8946 39.3487 34.7071C39.1611 34.5196 39.0558 34.2652 39.0558 34C39.0558 33.7348 39.1611 33.4804 39.3487 33.2929C39.5362 33.1054 39.7906 33 40.0558 33ZM40.0558 39C40.321 39 40.5754 39.1054 40.7629 39.2929C40.9504 39.4804 41.0558 39.7348 41.0558 40C41.0558 40.2652 40.9504 40.5196 40.7629 40.7071C40.5754 40.8946 40.321 41 40.0558 41C39.7906 41 39.5362 40.8946 39.3487 40.7071C39.1611 40.5196 39.0558 40.2652 39.0558 40C39.0558 39.7348 39.1611 39.4804 39.3487 39.2929C39.5362 39.1054 39.7906 39 40.0558 39Z" fill="#8C30F5"/>
<path d="M50.0558 29H47.0558V51H50.0558C50.321 51 50.5754 50.8946 50.7629 50.7071C50.9504 50.5196 51.0558 50.2652 51.0558 50V30C51.0558 29.7348 50.9504 29.4804 50.7629 29.2929C50.5754 29.1054 50.321 29 50.0558 29Z" fill="#2EC5CE"/>
</svg>
