<svg id="logo" xmlns="http://www.w3.org/2000/svg" viewBox="0 0 24 24"><title>html-black</title><g id="Groupe_7549" data-name="Groupe 7549"><path id="Tracé_10304" data-name="Tracé 10304" d="M7.39,3.91h.72v.72h.67V3.91H9.5V6.08H8.78V5.35H8.12v.73H7.39m3.06-1.45H9.82V3.91h2v.72h-.64V6.08h-.72m1.67-2.17h.76l.46.76.47-.76h.76V6.08h-.73V5l-.5.78L12.84,5V6.08h-.71m2.8-2.17h.73V5.36h1v.72H14.93" style="fill:#2e3032"/><path id="Tracé_10305" data-name="Tracé 10305" d="M7.37,18.69l-1-11.62H17.72l-1,11.62L12,20" style="fill:#2e3032"/><path id="Tracé_10306" data-name="Tracé 10306" d="M12,19V8h4.66l-.89,9.92" style="fill:#4a4d50"/><path id="Tracé_10307" data-name="Tracé 10307" d="M8.45,9.44H12v1.43H10l.13,1.46H12v1.42H8.84m.06.71h1.43l.1,1.14L12,16v1.49L9.1,16.7" style="fill:#fff"/><path id="Tracé_10308" data-name="Tracé 10308" d="M15.59,9.44H12v1.43h3.44m-.13,1.46H12v1.42h1.76l-.17,1.85L12,16v1.48l2.92-.81" style="fill:#fff"/></g></svg>