<svg id="logo" xmlns="http://www.w3.org/2000/svg" viewBox="0 0 24 24"><title>typescript-black</title><g id="Groupe_7542" data-name="Groupe 7542"><path id="Tracé_10235" data-name="Tracé 10235" d="M3.66,9.84H2.53v3.48H2.07V9.84H.94V9.42H3.65v.42Z" style="fill:#2e3032"/><path id="Tracé_10236" data-name="Tracé 10236" d="M5.82,10.54,4.54,13.77q-.35.87-1,.87a1,1,0,0,1-.3,0v-.39a.86.86,0,0,0,.27,0,.54.54,0,0,0,.5-.41l.23-.53L3.19,10.54h.5l.75,2.14.06.22h0l.05-.21.8-2.15Zm.76,2.39h0v1.68H6.12V10.55h.45V11h0a1,1,0,0,1,1-.56,1,1,0,0,1,.85.37,1.58,1.58,0,0,1,.3,1A1.75,1.75,0,0,1,8.35,13a1.1,1.1,0,0,1-.93.41A.92.92,0,0,1,6.58,12.93Zm0-1.13v.38a.83.83,0,0,0,.22.6.71.71,0,0,0,.57.24A.75.75,0,0,0,8,12.7a1.36,1.36,0,0,0,.23-.86A1.12,1.12,0,0,0,8,11.11a.73.73,0,0,0-.58-.27.81.81,0,0,0-.63.28,1,1,0,0,0-.24.68Zm4.88.24h-2a1,1,0,0,0,.26.72.85.85,0,0,0,.66.26,1.31,1.31,0,0,0,.86-.32v.42a1.6,1.6,0,0,1-1,.26A1.17,1.17,0,0,1,9.35,13,1.52,1.52,0,0,1,9,11.94a1.52,1.52,0,0,1,.36-1.06,1.19,1.19,0,0,1,.92-.4,1,1,0,0,1,.84.35,1.46,1.46,0,0,1,.3,1V12ZM11,11.67a.91.91,0,0,0-.18-.6.63.63,0,0,0-.51-.22.73.73,0,0,0-.54.23,1.09,1.09,0,0,0-.28.59Zm.7,1.52v-.3a1.52,1.52,0,0,0,.85.26,1.05,1.05,0,0,0,.69-.19.65.65,0,0,0,.24-.53.68.68,0,0,0-.16-.48,2.85,2.85,0,0,0-.7-.49,2.48,2.48,0,0,1-.75-.58.93.93,0,0,1-.16-.54.92.92,0,0,1,.33-.7,1.18,1.18,0,0,1,.85-.28,2.06,2.06,0,0,1,.7.12v.28a1.83,1.83,0,0,0-.73-.15.91.91,0,0,0-.63.21.69.69,0,0,0-.07,1,3,3,0,0,0,.69.48,2.31,2.31,0,0,1,.73.55.87.87,0,0,1,.18.56.93.93,0,0,1-.31.73,1.21,1.21,0,0,1-.89.28,1.82,1.82,0,0,1-.46-.06,2.74,2.74,0,0,1-.4-.15Zm4.42,0a1.36,1.36,0,0,1-.74.19,1.19,1.19,0,0,1-.92-.38,1.48,1.48,0,0,1-.34-1,1.52,1.52,0,0,1,.4-1.09,1.29,1.29,0,0,1,1-.42,1.44,1.44,0,0,1,.62.13v.28a1.28,1.28,0,0,0-.66-.18,1,1,0,0,0-.79.36,1.36,1.36,0,0,0-.31.91,1.33,1.33,0,0,0,.28.88.92.92,0,0,0,.73.32,1.19,1.19,0,0,0,.73-.22v.25Zm1.69-2.4a.52.52,0,0,0-.29-.09.6.6,0,0,0-.55.34,1.69,1.69,0,0,0-.23,1v1.31h-.24V10.54h.24v.62h0a1,1,0,0,1,.31-.5.76.76,0,0,1,.75-.12v.26Zm.43-1a.21.21,0,0,1-.15-.07A.2.2,0,0,1,18,9.62a.18.18,0,0,1,.06-.14.2.2,0,0,1,.15-.05.27.27,0,0,1,.15.05.2.2,0,0,1,.06.14.2.2,0,0,1-.06.15.23.23,0,0,1-.15.07Zm-.13,3.49V10.55h.26v2.78Zm1.13-.49h0v1.78H19V10.55h.25v.58h0a1.11,1.11,0,0,1,1-.64,1,1,0,0,1,.83.36,1.5,1.5,0,0,1,.3,1A1.73,1.73,0,0,1,21.05,13a1.09,1.09,0,0,1-.9.43,1,1,0,0,1-.92-.57Zm0-1v.35a1.08,1.08,0,0,0,.27.73.86.86,0,0,0,.69.3.79.79,0,0,0,.69-.36,1.6,1.6,0,0,0,.26-1,1.29,1.29,0,0,0-.24-.83.8.8,0,0,0-.65-.31.9.9,0,0,0-.75.33,1.16,1.16,0,0,0-.27.76ZM23,13.29a.88.88,0,0,1-.36.1c-.42,0-.62-.25-.62-.75V10.77h-.5v-.23H22V9.82l.12,0,.12,0v.81h.73v.23h-.73v1.84a.76.76,0,0,0,.09.42.37.37,0,0,0,.31.13.64.64,0,0,0,.33-.1v.22Z" style="fill:#2e3032"/></g></svg>